<?xml version="1.0" standalone="no"?>
<!DOCTYPE svg PUBLIC "-//W3C//DTD SVG 20010904//EN"
 "http://www.w3.org/TR/2001/REC-SVG-20010904/DTD/svg10.dtd">
<svg version="1.0" xmlns="http://www.w3.org/2000/svg"
 width="200.000000pt" height="250.000000pt" viewBox="0 0 200.000000 250.000000"
 preserveAspectRatio="xMidYMid meet">
<metadata>
Created by potrace 1.10, written by Peter Selinger 2001-2011
</metadata>
<g transform="translate(0.000000,250.000000) scale(0.100000,-0.100000)"
fill="#000000" stroke="none">
<path d="M188 2350 c-96 -51 -112 -181 -32 -257 l34 -32 0 -353 0 -353 423 -4
c440 -3 513 1 586 39 79 40 116 106 116 210 0 82 -13 115 -62 164 -56 57 -103
70 -265 74 l-148 4 -16 27 c-22 37 -71 69 -119 76 -51 8 -120 -26 -152 -74
-48 -72 -19 -187 57 -226 59 -31 150 -15 194 34 18 19 30 21 153 21 184 0 223
-18 223 -105 0 -50 -41 -91 -101 -100 -24 -3 -203 -5 -397 -3 l-353 3 0 285 0
284 25 13 c40 21 66 74 66 133 0 67 -27 112 -84 139 -52 26 -100 26 -148 1z
m135 -31 c29 -16 56 -50 57 -71 0 -9 4 -19 9 -22 17 -11 -12 -75 -51 -118 -21
-23 -38 -48 -39 -57 0 -9 -2 -135 -3 -281 -3 -264 -3 -264 20 -287 l23 -23
375 0 c408 0 408 0 463 57 27 29 31 39 29 83 -3 52 -23 93 -56 110 -11 6 -20
8 -20 6 0 -3 -12 -1 -27 5 -24 9 -231 13 -276 6 -11 -2 -33 -15 -50 -28 -72
-57 -140 -50 -192 20 -29 41 -30 52 -10 113 12 34 24 49 51 61 66 32 119 19
168 -40 30 -36 47 -40 221 -47 150 -6 212 -34 247 -113 37 -85 29 -163 -25
-234 -21 -28 -94 -59 -164 -69 -62 -8 -812 -4 -840 5 -9 3 -13 90 -15 339 -3
331 -3 335 -26 363 -68 85 -64 178 10 220 29 16 93 17 121 2z"/>
<path d="M193 2275 c-30 -30 -34 -39 -28 -72 6 -38 41 -87 56 -77 5 3 9 1 9
-3 0 -5 16 -8 36 -8 50 2 94 39 99 87 4 32 0 42 -30 73 -49 48 -93 49 -142 0z
m115 -12 c32 -27 37 -64 12 -96 -29 -37 -80 -37 -109 -1 -27 35 -26 59 4 89
28 29 65 32 93 8z"/>
<path d="M618 1850 c-21 -21 -36 -44 -34 -51 2 -8 7 -26 10 -40 14 -63 83 -96
133 -63 43 28 54 41 58 75 8 62 -34 111 -98 115 -24 2 -40 -6 -69 -36z m117
-15 c39 -38 30 -86 -23 -114 -48 -26 -110 34 -91 89 18 51 76 64 114 25z"/>
<path d="M652 2222 l3 -71 310 -4 c332 -5 361 -8 470 -61 66 -33 149 -120 182
-192 31 -68 42 -198 24 -284 -29 -140 -100 -224 -258 -302 l-103 -51 102 -39
c229 -86 312 -174 339 -362 32 -218 -63 -412 -244 -497 -116 -54 -172 -61
-512 -66 l-310 -4 -3 -67 -3 -67 278 2 c411 3 467 10 622 85 154 73 267 218
302 383 17 84 15 247 -4 322 -33 125 -99 224 -192 289 l-54 37 51 56 c98 107
144 253 134 421 -9 160 -52 259 -156 362 -48 46 -91 77 -142 101 -127 61 -186
69 -531 75 l-308 5 3 -71z m704 4 c84 -22 131 -42 187 -82 53 -38 115 -103
136 -143 8 -14 17 -28 21 -31 3 -3 17 -39 31 -80 20 -63 24 -92 22 -180 -2
-58 -4 -114 -6 -125 -7 -45 -28 -105 -37 -105 -6 0 -10 -8 -10 -17 -1 -17 -15
-38 -87 -134 -47 -61 -48 -59 41 -133 86 -73 153 -187 171 -291 8 -49 8 -206
0 -260 -7 -41 -19 -74 -62 -161 -36 -74 -133 -165 -225 -213 -43 -22 -78 -38
-78 -35 0 3 -8 0 -19 -5 -56 -30 -160 -39 -451 -37 l-295 1 -3 24 c-2 13 0 27
5 32 4 4 128 9 274 9 182 1 284 6 323 15 32 8 65 11 74 8 9 -4 13 -2 9 4 -4 6
-1 10 6 10 21 -1 77 15 77 22 0 4 9 7 19 8 51 4 180 116 217 188 46 89 58 145
58 265 0 137 -17 203 -72 275 -52 69 -139 136 -214 164 -94 36 -99 45 -47 72
24 13 47 23 51 24 4 0 34 23 66 52 105 92 149 215 139 385 -8 124 -42 204
-120 282 -60 60 -100 84 -202 116 -64 21 -94 23 -355 27 -157 2 -291 6 -298 9
-8 2 -12 15 -10 31 l3 28 230 5 c250 5 337 1 431 -24z"/>
<path d="M190 745 l0 -356 -34 -29 c-107 -94 -36 -270 109 -270 92 0 155 62
155 153 0 57 -18 96 -60 129 l-29 23 -1 285 -1 285 408 0 c448 0 471 -3 498
-55 20 -38 19 -90 -1 -119 -30 -42 -71 -51 -240 -51 l-158 0 -31 34 c-57 63
-153 71 -215 19 -42 -35 -60 -74 -60 -130 0 -145 190 -209 281 -95 l24 31 180
3 c163 3 185 5 230 26 90 42 133 103 142 202 11 115 -48 210 -155 250 -49 19
-79 20 -547 20 l-495 0 0 -355z m1016 307 c113 -37 165 -122 146 -238 -11 -66
-56 -124 -119 -154 -48 -23 -130 -30 -336 -30 -58 0 -67 -3 -103 -35 -49 -44
-103 -60 -150 -45 -19 6 -34 16 -34 20 0 5 -9 18 -20 28 -13 12 -23 37 -26 66
-6 44 -4 48 34 87 38 37 44 40 91 38 28 -2 51 -7 51 -11 0 -5 4 -7 9 -3 5 3
18 -5 28 -18 34 -43 55 -48 222 -48 173 0 207 7 250 55 35 37 39 118 9 162
-48 70 -38 69 -492 72 -434 3 -443 3 -464 -43 -15 -32 -16 -513 -2 -550 6 -16
23 -41 39 -55 57 -55 63 -125 15 -187 -18 -24 -35 -33 -68 -38 -112 -17 -186
97 -121 186 54 74 54 71 55 418 0 178 3 328 6 332 3 5 213 9 467 8 406 0 468
-2 513 -17z"/>
<path d="M652 760 c-18 -9 -42 -31 -53 -49 -17 -28 -18 -37 -8 -69 34 -112
188 -95 192 21 3 79 -64 128 -131 97z m83 -45 c30 -30 31 -54 4 -89 -15 -19
-30 -26 -53 -26 -64 0 -92 74 -46 120 27 27 66 25 95 -5z"/>
<path d="M223 333 c-29 -6 -55 -48 -58 -94 -6 -77 84 -123 150 -78 47 33 59
58 47 101 -19 70 -53 88 -139 71z m80 -33 c47 -37 44 -82 -8 -116 -21 -14 -30
-14 -54 -5 -42 18 -57 52 -41 91 21 50 63 62 103 30z"/>
</g>
</svg>
